<?xml version="1.0" encoding="iso-8859-1"?>
<!-- Uploaded to: SVG Repo, www.svgrepo.com, Generator: SVG Repo Mixer Tools -->
<svg fill="#000000" height="800px" width="800px" version="1.1" id="Layer_1" xmlns="http://www.w3.org/2000/svg" xmlns:xlink="http://www.w3.org/1999/xlink" 
	 viewBox="0 0 512 512" xml:space="preserve">
<g>
	<g>
		<path d="M459.443,87.967c-26.441-19.48-62.494-34.642-104.504-44.031C330.485,16.966,295.186,0,255.996,0
			s-74.487,16.966-98.942,43.936c-42.01,9.389-78.063,24.55-104.504,44.031c-68.648,50.574-65.212,128.604,30.701,176.561
			c46.421,23.211,107.769,35.994,172.744,35.994c64.975,0,126.325-12.782,172.745-35.992
			C524.672,216.564,528.092,138.544,459.443,87.967z M255.996,33.391c44.65,0,82.566,29.367,95.46,69.797
			c-12.349,15.484-47.537,30.377-95.46,30.377s-83.111-14.894-95.46-30.377C173.431,62.758,211.347,33.391,255.996,33.391z
			 M155.823,142.394c24.475,15.348,60.304,24.563,100.174,24.563c39.87,0,75.699-9.215,100.174-24.563v24.563
			c0,8.695-9.346,18.559-25.001,26.387c-19.514,9.757-46.913,15.352-75.173,15.352c-28.26,0-55.659-5.595-75.173-15.352
			c-15.655-7.828-25.001-17.692-25.001-26.387V142.394z M413.808,234.663c-41.874,20.937-97.919,32.467-157.812,32.467
			S140.058,255.6,98.185,234.663c-62.174-31.087-82.553-78.021-25.828-119.812c15.717-11.58,35.741-21.453,58.977-29.221
			c-5.79,15.006-8.902,31.23-8.902,47.935v33.391c0,22.262,15.435,42.24,43.459,56.253c24.348,12.173,56.348,18.877,90.106,18.877
			s65.759-6.704,90.106-18.877c28.025-14.013,43.459-33.99,43.459-56.253v-33.391c0-16.705-3.111-32.927-8.902-47.935
			c23.237,7.768,43.26,17.642,58.977,29.221C496.415,156.68,475.898,203.618,413.808,234.663z"/>
	</g>
</g>
<g>
	<g>
		<path d="M456.344,411.826h-16.696V395.13c0-9.22-7.475-16.696-16.696-16.696H289.388c-7.219,0-13.35,4.59-15.679,11.004
			c-5.562-2.056-11.537-3.178-17.712-3.178c-6.176,0-12.151,1.122-17.712,3.178c-2.33-6.413-8.46-11.004-15.68-11.004H89.04
			c-9.22,0-16.696,7.475-16.696,16.696v16.696H55.649c-9.22,0-16.696,7.475-16.696,16.696s7.475,16.696,16.696,16.696h18.375
			C81.78,483.275,115.509,512,155.823,512c45.095,0,81.928-35.948,83.407-80.689c2.581-6.939,9.254-11.659,16.767-11.659
			c7.513,0,14.185,4.72,16.767,11.659C274.243,476.052,311.077,512,356.17,512c40.313,0,74.042-28.725,81.799-66.783h18.375
			c9.22,0,16.696-7.475,16.696-16.696S465.565,411.826,456.344,411.826z M205.91,428.522c0,27.618-22.469,50.087-50.087,50.087
			c-27.618,0-50.087-22.469-50.087-50.087v-16.696H205.91V428.522z M406.257,428.522c0,27.618-22.469,50.087-50.087,50.087
			s-50.087-22.469-50.087-50.087v-16.696h100.174V428.522z"/>
	</g>
</g>
</svg>